((((((hardcoded Dutch subs)))))))

Verenigde Staten
Oorlog / Drama
123 minuten

geregisseerd door Sam Mendes
met Jake Gyllenhaal, Jamie Foxx en Peter Sarsgaard

Anthony Swofford, kortweg Swoff (Jake Gyllenhaal), wordt na zijn training als scherpschutter bij de mariniers uitgezonden naar het Midden-Oosten. De Eerste Golfoorlog is net begonnen en Swoff en zijn maten kunnen niet wachten om in de praktijk te brengen waar ze jaren op getraind hebben en te strijden tegen de grote vijand in de woestijn. Maar de werkelijkheid blijkt anders. Maandenlang moeten de mannen wachten totdat er iets gebeurt, terwijl de vijand in principe om elke hoek kan liggen en op ieder moment toe kan slaan. Swoff en z'n maten houden zich op de gloeiende zandvlaktes staande met sardonische kameraadschap en boosaardige humor, en dit allemaal in een land waar ze niks van weten, tegen een vijand waar ze niks van zien en voor een zaak waar ze weinig van snappen.
 
http://www.moviemeter.nl/film/31445

File size : 811 MiB
Duration : 1h 58mn
Overall bit rate : 960 Kbps

Video
ID : 0
Format : MPEG-4 Visual
Format profile : Advanced Simple@L5
Format settings, BVOP : Yes
Format settings, QPel : No
Format settings, GMC : No warppoints
Format settings, Matrix : Default (H.263)
Muxing mode : Packed bitstream
Codec ID : XVID
Codec ID/Hint : XviD
Duration : 1h 58mn
Bit rate : 758 Kbps
Width : 600 pixels
Height : 480 pixels
Display aspect ratio : 5/4
Frame rate : 25.000 fps
Resolution : 24 bits
Colorimetry : 4:2:0
Scan type : Progressive
Bits/(Pixel*Frame) : 0.105
Stream size : 641 MiB (79%)
Writing library : XviD 1.0.2 (UTC 2004-08-29)

Audio
ID : 1
Format : MPEG Audio
Format version : Version 1
Format profile : Layer 3
Codec ID : 55
Codec ID/Hint : MP3
Duration : 1h 58mn
Bit rate mode : Constant
Bit rate : 192 Kbps
Channel(s) : 2 channels
Sampling rate : 44.1 KHz
Resolution : 16 bits
Video delay : 26ms
Stream size : 162 MiB (20%)
Alignment : Split accross interleaves
Interleave, duration : 40 ms (1.00 video frame)
Title : Audio Stream
Writing library : LAME3.92